<svg fill="none" height="60" viewBox="0 0 60 60" width="60" xmlns="http://www.w3.org/2000/svg"><rect fill="#f4f4fe" height="60" rx="14" width="60"></rect><g stroke="#251fb6" stroke-linecap="round" stroke-linejoin="round" stroke-width="2"><path d="m30 35c2.761 0 5-2.239 5-5 0 2.761 2.239 5 5 5"></path><path d="m30 35c2.761 0 5 2.239 5 5 0-2.761 2.239-5 5-5"></path><path d="m20 25c2.761 0 5-2.239 5-5 0 2.761 2.239 5 5 5"></path><path d="m20 25c2.761 0 5 2.239 5 5 0-2.761 2.239-5 5-5"></path></g><path d="m37 26c-.414 0-.75-.336-.75-.75 0-.828-.672-1.5-1.5-1.5-.414 0-.75-.336-.75-.75s.336-.75.75-.75c.828 0 1.5-.672 1.5-1.5 0-.414.336-.75.75-.75s.75.336.75.75c0 .828.672 1.5 1.5 1.5.414 0 .75.336.75.75s-.336.75-.75.75c-.828 0-1.5.672-1.5 1.5 0 .414-.336.75-.75.75z" fill="#251fb6"></path><path d="m23 40c-.414 0-.75-.336-.75-.75 0-.828-.672-1.5-1.5-1.5-.414 0-.75-.336-.75-.75s.336-.75.75-.75c.828 0 1.5-.672 1.5-1.5 0-.414.336-.75.75-.75s.75.336.75.75c0 .828.672 1.5 1.5 1.5.414 0 .75.336.75.75s-.336.75-.75.75c-.828 0-1.5.672-1.5 1.5 0 .414-.336.75-.75.75z" fill="#251fb6"></path></svg>