<svg fill="none" height="31" viewBox="0 0 134 31" width="134" xmlns="http://www.w3.org/2000/svg"><path clip-rule="evenodd" d="m0 24.7215h5.68987v-8.2405h2.94304l4.51269 8.2405h6.2784l-5.4936-9.4177c.0392 0 4.7481-1.9228 4.7088-7.4557 0-4.27721-3.4924-7.8481-8.6329-7.8481h-7.69002c-1.27925 0-2.31628 1.03703-2.31628 2.31628v6.92892c.925757-.80713 2.03638-1.51251 3.44723-2.02487.12872-.06441.27598-.11594.44366-.15145.7941-.25425 1.67882-.44973 2.67221-.57217 1.08053-.23586 1.81096-.40038 1.81096-.40038l-4.57051-.08633-.57657-.90773c-.02191-.03338-.03433-.07208-.03592-.11198-.00159-.03989.0077-.07947.02689-.11448.01918-.03502.04753-.06415.082-.08429.03448-.02013.07378-.03051.11371-.03001l9.88834.11577c.0036.00012.0071.00085.0106.00157v.00001c.0028.00056.0055.00112.0083.0014.0075.00064.015.0017.0224.00316.0217.00434.0426.01188.0621.02238l.0084.00331c.0207.01307.039.02948.0542.04856.0046.00562.0083.01062.0125.01698.0009.0015.002.00294.0031.00436.0009.00121.0019.0024.0028.00358.0027.0033.0053.00659.0074.01034.0067.01367.012.02796.0158.04266.0004.00122.0011.00232.0018.00342.0008.00131.0016.00263.0019.00416l.0002.00245c.0056.02482.0068.05043.0035.07566-.0007.00685-.0019.01366-.0035.02036-.0046.02052-.0122.04025-.0224.05858l-.0051.01289c-.0004.00141-.001.00278-.0016.0041l-4.86671 7.54139c-.02767.0425-.06918.0742-.1175.0896s-.10049.0137-.14767-.0049c-.04265-.0165-.0791-.0459-.10431-.084l-2.21286-3.72124-.72191.23133c-3.04751 1.18181-4.576793 3.53531-5.31344 5.87051zm32.3857-5.6899c-.157.2355-.3532.4317-.6279.5887-.4316.3139-1.1379.5886-2.119.5886-2.0012 0-3.2962-1.3735-3.7278-2.7469h12.3608l.0784-.5886c.0113-.1014.0258-.206.0408-.3139.0371-.2678.077-.5556.077-.8633 0-5.6899-3.9241-9.41772-8.8292-9.41772-5.1012 0-9.2215 4.12022-9.2215 9.41772s4.1595 9.4177 9.0253 9.4177c4.6697 0 7.495-2.7468 8.4367-5.6899zm-6.4747-4.905c.4316-1.5696 1.7266-2.9431 3.7278-2.9431 2.0013 0 3.2962 1.3735 3.7279 2.9431zm21.7647 10.9873c-4.9051 0-7.2595-2.3152-7.8481-5.8861l5.1012-.3924c.1962 1.2165.9811 1.9621 2.3545 1.9621s2.1582-.7848 2.1582-1.5697c0-.6782-1.1473-1-2.6326-1.4166-2.7255-.7645-6.5889-1.8482-6.5889-6.039 0-2.94309 2.5899-5.49372 6.8671-5.49372 4.7088 0 7.0633 2.35443 7.6519 5.49372l-5.1013.3924c-.1962-.7849-.9418-1.5697-2.1582-1.5697-1.2165 0-1.7658.5886-1.7658 1.3735 0 .6965 1.1624 1.0222 2.6618 1.4422 2.7238.763 6.5597 1.8375 6.5597 6.0134 0 2.9431-2.7076 5.6899-7.2595 5.6899zm9.6262 5.8861h5.2974v-7.6519c.3532.2747.7456.5494 1.2165.7848.7848.4317 1.9228.7848 3.2962.7848 4.5126 0 8.4367-3.8848 8.4367-9.2215s-3.9241-9.22152-8.4367-9.22152c-1.5696 0-2.8253.51013-3.7279.98102-.5101.27468-.981.62784-1.3734.98101l-.7848-1.76582h-3.924zm9.0253-10.9873c-2.1975 0-3.9241-1.7659-3.9241-4.3165s1.7266-4.3165 3.9241-4.3165 3.924 1.7659 3.924 4.3165-1.7265 4.3165-3.924 4.3165zm20.0096 5.1012c-5.1013 0-9.2215-4.1202-9.2215-9.4177s4.1202-9.41772 9.2215-9.41772c5.1012 0 9.2215 4.12022 9.2215 9.41772s-4.1203 9.4177-9.2215 9.4177zm0-4.905c2.1974 0 3.924-1.7266 3.924-4.5127s-1.7266-4.5127-3.924-4.5127c-2.1975 0-3.9241 1.7266-3.9241 4.5127s1.7266 4.5127 3.9241 4.5127zm11.5867 4.5126h5.2975v-9.6139c0-2.3544 1.334-3.7279 3.335-3.7279 2.002 0 3.336 1.3735 3.336 3.7279v9.6139h5.297v-10.5949c0-4.70888-2.982-7.65192-7.259-7.65192-1.57 0-2.904.51013-3.846.98102-.549.27468-1.02.62784-1.452.98101l-.785-1.76582h-3.9235zm35.5185 0h-3.924l-.785-1.7658c-.431.3532-.941.7063-1.491.981-.942.5101-2.236.981-3.806.981-3.924 0-6.082-2.119-6.082-5.1012 0-3.5709 2.55-6.0823 10.791-6.0823 0-1.7658-.981-2.7469-2.355-2.7469-.981 0-1.569.4709-1.922.9026-.197.2747-.354.5493-.432.8633l-5.298-.3924c.628-3.57092 3.1-6.08232 7.849-6.08232 4.316 0 7.455 3.13924 7.455 7.45572zm-8.633-3.7278c2.002 0 3.336-1.3342 3.336-3.3355v-.7848c-4.552 0-5.494.981-5.494 2.3544 0 .9811.785 1.7659 2.158 1.7659z" fill="#251fb6" fill-rule="evenodd"></path></svg>