<svg class="respona-testimonial-svg flex-grow-0 flex-shrink-0" fill="none" height="117" viewBox="0 0 147 117" width="147" xmlns="http://www.w3.org/2000/svg" xmlns:xlink="http://www.w3.org/1999/xlink"><path d="m126.028-.00024414c-8.912 4.68000414-16.777 10.39994414-23.592 17.67994414-12.059 12.4801-23.5934 33.28-23.5934 62.9201 0 20.8002 15.7286 36.4002 34.0784 36.4002 18.35 0 34.079-15.6 34.079-33.8002 0-18.2001-15.729-33.8-34.079-33.8 1.573-11.96 6.816-20.8 12.583-27.0401 3.67-3.6399 7.34-6.7599 11.01-9.3599zm-78.8421 0c-8.9129 4.68000414-16.7772 10.39994414-23.593 17.67994414-12.0586 12.4801-23.5929 33.28-23.5929 62.9201 0 20.8002 15.7286 36.4002 34.0787 36.4002 18.35 0 34.0787-15.6 34.0787-33.8002 0-18.2001-15.7287-33.8-34.0787-33.8 1.5728-11.96 6.8157-20.8 12.5829-27.0401 3.67-3.6399 7.34-6.7599 11.01-9.3599z" fill="#251FB6"></path></svg>